<svg width="3462" height="2337" viewBox="0 0 3462 2337" fill="none" xmlns="http://www.w3.org/2000/svg">
<g id="undraw_balloons_re_8ymj 1">
<rect width="3462" height="2336" fill="none"/>
<g id="balloon2">
<path id="Vector" d="M1860.54 1928.87C1862.94 1898.7 1844.98 1872.65 1820.43 1870.71C1795.87 1868.76 1774.02 1891.64 1771.62 1921.82C1769.45 1949.18 1784 1973.14 1805.04 1978.83L1802.94 1987.54L1819.23 1988.83L1818.53 1979.9C1840.2 1977.6 1858.37 1956.23 1860.54 1928.87Z" fill="#FF6584"/>
<path id="Vector_2" d="M1785.53 1937.36L1779.37 1936.87C1778.25 1925.19 1779.19 1913.4 1782.14 1902.04L1788.3 1902.53C1784.68 1914.36 1783.75 1925.97 1785.53 1937.36Z" fill="white"/>
<path id="Vector_3" d="M1821.03 1980.04L1802.56 1978.57L1802.23 1982.67L1820.7 1984.14L1821.03 1980.04Z" fill="#3F3D56"/>
<path id="Vector_4" d="M1811.14 1980.16L1676.31 2199.91L1678.07 2200.98L1812.9 1981.23L1811.14 1980.16Z" fill="#3F3D56"/>
</g>
<g id="balloon3">
<path id="Vector_5" d="M1895.4 1958.52C1909.66 1931.81 1903.61 1900.77 1881.87 1889.2C1860.13 1877.63 1830.95 1889.9 1816.69 1916.61C1803.75 1940.83 1807.52 1968.6 1824.54 1982.2L1819.13 1989.35L1833.55 1997.03L1836.48 1988.56C1857.27 1995.09 1882.47 1982.74 1895.4 1958.52Z" fill="#6C63FF"/>
<path id="Vector_6" d="M1823.23 1936.4L1817.78 1933.5C1821.42 1922.34 1826.99 1911.9 1834.24 1902.67L1839.69 1905.57C1831.64 1914.97 1826.15 1925.25 1823.23 1936.4Z" fill="white"/>
<path id="Vector_7" d="M1838.71 1989.68L1822.36 1980.98L1820.43 1984.6L1836.77 1993.31L1838.71 1989.68Z" fill="#3F3D56"/>
<path id="Vector_8" d="M1828.33 1987.27L1676.49 2195.67L1678.16 2196.88L1830 1988.48L1828.33 1987.27Z" fill="#3F3D56"/>
</g>
<g id="balloon1">
<path id="Vector_9" d="M1774.72 1912.16C1774.96 1881.89 1755.18 1857.19 1730.55 1857C1705.92 1856.81 1685.76 1881.19 1685.52 1911.46C1685.31 1938.91 1701.54 1961.77 1722.93 1965.94L1721.45 1974.78L1737.8 1974.91L1736.46 1966.05C1757.92 1962.21 1774.51 1939.6 1774.72 1912.16Z" fill="#6C63FF"/>
<path id="Vector_10" d="M1700.5 1925.97L1694.33 1925.92C1692.37 1914.35 1692.46 1902.52 1694.6 1890.98L1700.78 1891.03C1698.01 1903.09 1697.92 1914.74 1700.5 1925.97Z" fill="white"/>
<path id="Vector_11" d="M1738.96 1966.01L1720.43 1965.87L1720.4 1969.98L1738.93 1970.12L1738.96 1966.01Z" fill="#3F3D56"/>
<path id="Vector_12" d="M1730.83 1967.85L1685.7 2221.59L1687.72 2221.95L1732.85 1968.2L1730.83 1967.85Z" fill="#3F3D56"/>
</g>
<g id="woman">
<path id="Vector_13" d="M1673.52 2327.91H1681.93L1685.94 2295.51H1673.52V2327.91Z" fill="#FFB8B8"/>
<path id="Vector_14" d="M1671.37 2325.16H1687.94C1690.74 2325.17 1693.42 2326.28 1695.4 2328.25C1697.38 2330.23 1698.5 2332.91 1698.5 2335.71V2336.05H1671.37V2325.16Z" fill="#2F2E41"/>
<path id="Vector_15" d="M1565.04 2311.99L1572.25 2316.32L1592.39 2290.6L1581.75 2284.22L1565.04 2311.99Z" fill="#FFB8B8"/>
<path id="Vector_16" d="M1559 2317.87L1564.61 2308.54L1578.82 2317.05C1581.21 2318.5 1582.94 2320.83 1583.62 2323.54C1584.29 2326.25 1583.87 2329.12 1582.43 2331.52L1582.25 2331.81L1559 2317.87Z" fill="#2F2E41"/>
<path id="Vector_17" d="M1671.23 2321.12C1669.53 2319.39 1665.32 2291.06 1659.08 2248.02C1656.91 2233.06 1654.86 2218.9 1653.17 2208.05C1638.69 2239.82 1615.29 2274.19 1587.18 2304.95L1587.01 2305.13L1586.79 2305.04C1577.8 2301.34 1576.12 2300.48 1572.08 2298.41C1570.87 2297.79 1569.45 2297.07 1567.56 2296.12L1567.45 2296.04C1566.58 2295.05 1574.51 2281.91 1602.22 2237.25C1614.29 2217.79 1626.78 2197.67 1635.04 2183.7L1635.12 2183.57L1635.27 2183.54C1655.26 2179.38 1674.53 2184.26 1689.53 2197.29L1689.66 2197.4L1689.65 2197.56C1689.25 2213.94 1689.59 2239.66 1689.89 2262.36C1690.47 2306.66 1690.43 2319.61 1689.05 2320.02L1688.98 2320.03C1686.96 2320.2 1685.28 2320.36 1683.73 2320.52C1679.66 2320.97 1675.57 2321.21 1671.48 2321.22L1671.33 2321.22L1671.23 2321.12Z" fill="#2F2E41"/>
<path id="Vector_18" d="M1627.66 2060.17C1624.83 2048.5 1622.43 2035.33 1627.77 2024.57C1631.47 2017.11 1645.18 2014.6 1653.04 2017.29C1660.9 2019.98 1666.58 2027.27 1669.08 2035.22C1671.58 2043.17 1671.29 2051.74 1670.2 2060.01C1655.75 2059.73 1641.29 2059.45 1627.66 2060.17Z" fill="#2F2E41"/>
<path id="Vector_19" d="M1652.05 2060.17C1661.36 2060.17 1668.9 2052.63 1668.9 2043.34C1668.9 2034.05 1661.36 2026.51 1652.05 2026.51C1642.74 2026.51 1635.19 2034.05 1635.19 2043.34C1635.19 2052.63 1642.74 2060.17 1652.05 2060.17Z" fill="#FFB8B8"/>
<path id="Vector_20" d="M1631.44 2039.87C1631.39 2037.04 1631.91 2034.23 1632.97 2031.6C1634.02 2028.97 1635.6 2026.58 1637.6 2024.57C1639.6 2022.56 1641.98 2020.98 1644.61 2019.91C1647.24 2018.83 1650.05 2018.3 1652.89 2018.34C1655.72 2018.38 1658.53 2018.98 1661.12 2020.12C1663.72 2021.26 1666.06 2022.91 1668.01 2024.97C1669.95 2027.03 1671.47 2029.46 1672.45 2032.12C1673.44 2034.77 1673.88 2037.6 1673.76 2040.43C1659.33 2040.46 1644.91 2040.49 1631.44 2039.87Z" fill="#2F2E41"/>
<path id="Vector_21" d="M1698.51 2201.54C1695.4 2190.95 1693.85 2183.54 1692.06 2174.99C1689.61 2163.26 1686.84 2149.96 1679.18 2124.08L1679.17 2124.01L1679.17 2123.95C1681.34 2101.5 1671.89 2077.68 1654.53 2061.78C1653.36 2060.79 1651.86 2060.29 1650.34 2060.37C1648.81 2060.44 1647.38 2061.1 1646.32 2062.19C1636.54 2073.15 1630.4 2083.41 1627.54 2093.57L1627.48 2093.79C1631.56 2106.9 1636.12 2120.07 1640.54 2132.81L1640.61 2133L1640.48 2133.14C1623.94 2153.03 1614.8 2179.6 1615.35 2206.13C1631.18 2200.6 1647.83 2197.82 1664.6 2197.89C1676 2197.9 1687.37 2199.12 1698.51 2201.54Z" fill="#3F3D56"/>
<path id="Vector_22" d="M1694.57 2176.56C1693.56 2176.49 1692.58 2176.2 1691.7 2175.72C1690.82 2175.23 1690.05 2174.55 1689.46 2173.74C1688.87 2172.92 1688.46 2171.99 1688.27 2171C1688.08 2170.01 1688.11 2168.99 1688.35 2168.01L1667.84 2154.59L1679.54 2149.55L1697.22 2163.06C1698.84 2163.59 1700.21 2164.68 1701.07 2166.14C1701.93 2167.6 1702.23 2169.33 1701.9 2170.99C1701.57 2172.66 1700.64 2174.14 1699.29 2175.17C1697.94 2176.2 1696.26 2176.69 1694.57 2176.56V2176.56Z" fill="#FFB8B8"/>
<path id="Vector_23" d="M1674.62 2166.66C1662.36 2152.57 1649.67 2138 1638.13 2123.35L1638.05 2123.25L1638.05 2123.14C1638.11 2111.17 1638.16 2098.81 1639.58 2084.98C1638.46 2083.79 1637.61 2082.37 1637.11 2080.82C1636.61 2079.27 1636.46 2077.63 1636.67 2076.01C1636.83 2074.19 1637.38 2072.44 1638.31 2070.87C1639.23 2069.3 1640.5 2067.96 1642.01 2066.94C1647.79 2063.3 1656.45 2065.27 1660.54 2071.17C1664.5 2076.86 1663.92 2085.01 1660.9 2089.12L1657.57 2115.26L1657.27 2115.24L1657.34 2115.27L1657.36 2115.25L1657.4 2115.3L1657.5 2115.36C1657.5 2115.37 1657.49 2115.38 1657.48 2115.4C1668.31 2128.61 1679.51 2142.26 1690.7 2155.32L1690.94 2155.61L1690.63 2155.83C1685.39 2159.42 1679.97 2163.13 1675.09 2166.71L1674.83 2166.9L1674.62 2166.66Z" fill="#3F3D56"/>
</g>
</g>
</svg>
