<svg width="1009" height="354" viewBox="0 0 289 354" fill="none" xmlns="http://www.w3.org/2000/svg">
<g id="undraw_balloons_re_8ymj 1">
<rect width="289" height="354" fill="white"/>
<g id="balloon2">
<path id="Vector" d="M257.636 53.0151C259.404 30.7561 246.174 11.5473 228.086 10.1109C209.998 8.67456 193.901 25.5546 192.133 47.8136C190.53 67.994 201.255 85.6668 216.751 89.8619L215.201 96.2867L227.205 97.24L226.688 90.651C242.653 88.9541 256.033 73.1955 257.636 53.0151Z" fill="#FF6584"/>
<path id="Vector_2" d="M202.378 59.2735L197.843 58.9134C197.015 50.2955 197.706 41.5993 199.884 33.22L204.418 33.5801C201.75 42.3078 201.07 50.8723 202.378 59.2735Z" fill="white"/>
<path id="Vector_3" d="M228.525 90.7542L214.921 89.6739L214.681 92.6966L228.285 93.777L228.525 90.7542Z" fill="#3F3D56"/>
<path id="Vector_4" d="M221.245 90.8436L121.924 252.935L123.217 253.727L222.538 91.6357L221.245 90.8436Z" fill="#3F3D56"/>
</g>
<g id="balloon3">
<path id="Vector_5" d="M283.311 74.8825C293.818 55.1794 289.357 32.287 273.345 23.7509C257.334 15.2148 235.836 24.2675 225.329 43.9706C215.802 61.8338 218.58 82.318 231.114 92.3492L227.127 97.6211L237.753 103.286L239.909 97.0384C255.224 101.854 273.784 92.7457 283.311 74.8825Z" fill="#6C63FF"/>
<path id="Vector_6" d="M230.147 58.5667L226.132 56.4266C228.814 48.1948 232.92 40.4971 238.261 33.6834L242.276 35.8235C236.345 42.7609 232.302 50.3419 230.147 58.5667Z" fill="white"/>
<path id="Vector_7" d="M241.553 97.8663L229.51 91.4461L228.084 94.1218L240.126 100.542L241.553 97.8663Z" fill="#3F3D56"/>
<path id="Vector_8" d="M233.909 96.0925L122.058 249.808L123.284 250.7L235.135 96.9845L233.909 96.0925Z" fill="#3F3D56"/>
</g>
<g id="balloon1">
<path id="Vector_9" d="M194.415 40.6865C194.59 18.3581 180.022 0.142489 161.877 0.000831064C143.733 -0.140827 128.882 17.8451 128.708 40.1735C128.55 60.4168 140.509 77.279 156.266 80.3574L155.178 86.8765L167.219 86.9705L166.233 80.4352C182.036 77.6032 194.257 60.9298 194.415 40.6865Z" fill="#6C63FF"/>
<path id="Vector_10" d="M139.745 50.8729L135.196 50.8374C133.755 42.3005 133.823 33.5772 135.397 25.0638L139.946 25.0994C137.908 33.9953 137.84 42.5865 139.745 50.8729Z" fill="white"/>
<path id="Vector_11" d="M168.073 80.4071L154.426 80.3005L154.403 83.3327L168.05 83.4392L168.073 80.4071Z" fill="#3F3D56"/>
<path id="Vector_12" d="M162.082 81.7611L128.837 268.924L130.33 269.19L163.575 82.0262L162.082 81.7611Z" fill="#3F3D56"/>
</g>
<g id="woman">
<path id="Vector_13" d="M119.867 347.347H126.064L129.013 323.449H119.867V347.347Z" fill="#FFB8B8"/>
<path id="Vector_14" d="M118.287 345.324H130.49C132.552 345.327 134.529 346.147 135.987 347.605C137.445 349.062 138.266 351.039 138.268 353.101V353.353H118.287V345.324Z" fill="#2F2E41"/>
<path id="Vector_15" d="M39.9566 335.607L45.2685 338.798L60.1062 319.832L52.2666 315.122L39.9566 335.607Z" fill="#FFB8B8"/>
<path id="Vector_16" d="M35.5081 339.941L39.6437 333.059L50.1046 339.343C51.8708 340.407 53.1429 342.128 53.6417 344.128C54.1406 346.129 53.8255 348.245 52.7656 350.014L52.6354 350.23L35.5081 339.941Z" fill="#2F2E41"/>
<path id="Vector_17" d="M118.181 342.339C116.931 341.067 113.826 320.166 109.231 288.425C107.633 277.386 106.121 266.939 104.875 258.939C94.2134 282.374 76.9762 307.724 56.2629 330.417L56.1436 330.548L55.9799 330.481C49.3535 327.753 48.1202 327.12 45.1407 325.593C44.2508 325.137 43.2042 324.6 41.8103 323.903L41.7331 323.844C41.0932 323.113 46.9317 313.423 67.3459 280.475C76.2387 266.123 85.4343 251.282 91.5246 240.978L91.5814 240.882L91.6906 240.86C106.413 237.79 120.61 241.393 131.664 251.006L131.753 251.084L131.751 251.203C131.452 263.286 131.703 282.258 131.924 298.997C132.356 331.678 132.327 341.226 131.309 341.529L131.258 341.538C129.766 341.661 128.527 341.783 127.385 341.896C124.389 342.232 121.378 342.405 118.363 342.415L118.256 342.415L118.181 342.339Z" fill="#2F2E41"/>
<path id="Vector_18" d="M86.0844 149.862C83.9983 141.25 82.231 131.537 86.1651 123.605C88.8948 118.102 98.993 116.249 104.782 118.231C110.57 120.214 114.756 125.593 116.596 131.458C118.437 137.323 118.223 143.643 117.421 149.74C106.775 149.535 96.1284 149.331 86.0844 149.862Z" fill="#2F2E41"/>
<path id="Vector_19" d="M104.05 149.86C110.907 149.86 116.465 144.303 116.465 137.447C116.465 130.592 110.907 125.035 104.05 125.035C97.1938 125.035 91.6356 130.592 91.6356 137.447C91.6356 144.303 97.1938 149.86 104.05 149.86Z" fill="#FFB8B8"/>
<path id="Vector_20" d="M88.8734 134.89C88.834 132.801 89.2149 130.726 89.9936 128.786C90.7723 126.847 91.9329 125.085 93.4064 123.603C94.8799 122.121 96.6362 120.951 98.5711 120.161C100.506 119.372 102.58 118.979 104.669 119.006C106.759 119.034 108.822 119.481 110.735 120.322C112.648 121.162 114.373 122.378 115.807 123.898C117.241 125.418 118.355 127.211 119.082 129.17C119.81 131.129 120.136 133.214 120.041 135.301C109.415 135.324 98.7891 135.346 88.8734 134.89Z" fill="#2F2E41"/>
<path id="Vector_21" d="M138.275 254.137C135.985 246.328 134.845 240.863 133.528 234.551C131.723 225.899 129.677 216.092 124.04 197L124.026 196.953L124.031 196.904C125.627 180.345 118.67 162.774 105.875 151.047C105.017 150.321 103.914 149.949 102.791 150.006C101.668 150.063 100.609 150.544 99.8281 151.353C92.6298 159.435 88.106 167.005 85.9984 174.497L85.9528 174.659C88.958 184.328 92.3211 194.044 95.5748 203.444L95.6215 203.578L95.5304 203.688C83.3488 218.353 76.6115 237.955 77.0173 257.521C88.6769 253.447 100.947 251.393 113.298 251.448C121.695 251.45 130.069 252.351 138.275 254.137Z" fill="#3F3D56"/>
<path id="Vector_22" d="M135.371 235.715C134.63 235.663 133.909 235.45 133.259 235.089C132.609 234.729 132.046 234.231 131.61 233.629C131.173 233.028 130.874 232.338 130.733 231.609C130.592 230.879 130.613 230.128 130.794 229.407L115.685 219.51L124.302 215.788L137.328 225.757C138.519 226.142 139.527 226.949 140.162 228.027C140.797 229.105 141.014 230.378 140.773 231.605C140.532 232.833 139.848 233.929 138.853 234.686C137.857 235.444 136.618 235.81 135.371 235.715V235.715Z" fill="#FFB8B8"/>
<path id="Vector_23" d="M120.68 228.409C111.645 218.016 102.302 207.27 93.7968 196.466L93.7423 196.393L93.7427 196.305C93.7815 187.483 93.8215 178.362 94.8668 168.158C94.0398 167.285 93.4184 166.237 93.0479 165.093C92.6775 163.949 92.5672 162.736 92.7253 161.544C92.8375 160.206 93.2492 158.91 93.93 157.752C94.6109 156.594 95.5435 155.604 96.6587 154.856C100.916 152.167 107.294 153.623 110.309 157.972C113.22 162.171 112.795 168.186 110.574 171.215L108.115 190.497L107.897 190.48L107.946 190.505L107.963 190.49L107.994 190.529L108.07 190.567C108.065 190.576 108.06 190.587 108.054 190.603C116.033 200.342 124.281 210.41 132.521 220.049L132.703 220.262L132.472 220.421C128.611 223.067 124.619 225.804 121.024 228.45L120.833 228.585L120.68 228.409Z" fill="#3F3D56"/>
</g>
</g>
</svg>
